<svg id="圖層_1" data-name="圖層 1" xmlns="http://www.w3.org/2000/svg" viewBox="0 0 28 24"><defs><style>.cls-1{fill:#a5a5a5;}</style></defs><title>0</title><rect class="cls-1" x="11.47" y="8.95" width="0.96" height="4.32" rx="0.46" ry="0.46"/><path class="cls-1" d="M10.64,12.32H9.37V9.41A.47.47,0,0,0,8.91,9h0a.47.47,0,0,0-.46.46v3.41a.47.47,0,0,0,.46.46h1.77a.46.46,0,0,0,.46-.46v0A.46.46,0,0,0,10.64,12.32Z"/><path class="cls-1" d="M16.13,9h0a.47.47,0,0,0-.46.46v2L14,9.18a.46.46,0,0,0-.4-.23h0a.46.46,0,0,0-.46.46v3.41a.46.46,0,0,0,.46.46h0a.46.46,0,0,0,.46-.46v-2l1.68,2.28,0,0h0a.46.46,0,0,0,.18.13.47.47,0,0,0,.17,0h0a.43.43,0,0,0,.22-.06l.11-.08h0a.46.46,0,0,0,.13-.32V9.41A.47.47,0,0,0,16.13,9Z"/><path class="cls-1" d="M19.41,9H17.64a.46.46,0,0,0-.46.46v3.4a.45.45,0,0,0,.46.46h1.77a.45.45,0,0,0,.46-.46v0a.45.45,0,0,0-.46-.46H18.13V11.6h1.28a.46.46,0,0,0,.46-.46v0a.46.46,0,0,0-.46-.46H18.13V9.92h1.28a.46.46,0,0,0,.46-.46v0A.46.46,0,0,0,19.41,9Z"/><path class="cls-1" d="M21.09,0H6.91A4.93,4.93,0,0,0,2,4.91V19.09A4.93,4.93,0,0,0,6.91,24H21.09A4.93,4.93,0,0,0,26,19.09V4.91A4.93,4.93,0,0,0,21.09,0Zm.38,14.73a2.25,2.25,0,0,1-.17.21h0a8.7,8.7,0,0,1-1,1c-2.43,2.25-6.44,4.93-7,4.51s.76-2.11-.65-2.4l-.29,0h0C8.3,17.38,5.17,14.5,5.17,11c0-3.9,3.94-7,8.81-7s8.8,3.15,8.8,7A6,6,0,0,1,21.47,14.73Z"/></svg>