<svg id="圖層_1" data-name="圖層 1" xmlns="http://www.w3.org/2000/svg" viewBox="0 0 30 30"><defs><style>.cls-1{fill:#ff8b8b;fill-rule:evenodd;}</style></defs><title>0</title><path class="cls-1" d="M0,15.82v0Z"/><path class="cls-1" d="M.08,16.54v0Z"/><path class="cls-1" d="M0,14.36c0-.09,0-.19,0-.28C0,14.17,0,14.27,0,14.36Z"/><path class="cls-1" d="M.34,18.17c0-.06,0-.12,0-.17S.33,18.11.34,18.17Z"/><path class="cls-1" d="M0,14.84v0Z"/><path class="cls-1" d="M23.79,11.17A3.79,3.79,0,1,0,20,15,3.79,3.79,0,0,0,23.79,11.17Zm-6.67,0A2.89,2.89,0,1,1,20,14.06,2.89,2.89,0,0,1,17.12,11.17Z"/><path class="cls-1" d="M.52,18.92l-.06-.23Z"/><path class="cls-1" d="M10.32,23.08a10.41,10.41,0,0,1-2.82-1,3.22,3.22,0,1,0,2.92-4.57,3.4,3.4,0,0,0-1.15.21c1.47.63,3.43,1,3.43,3A2.38,2.38,0,0,1,10.32,23.08Z"/><path class="cls-1" d="M15,0A15,15,0,0,0,.05,13.85l7.87,3.32a4.32,4.32,0,0,1,2.5-.79h.29l3.56-5.21h0A5.72,5.72,0,1,1,20,16.9h-.13l-5.08,3.61h0a1.93,1.93,0,0,1,0,.24,4.37,4.37,0,0,1-8.66.78L.62,19.26A15,15,0,1,0,15,0Z"/></svg>